# xmcd
#
# Track frame offsets:
#	150
#	12788
#	25352
#	36828
#	50217
#	65030
#	80219
#	92181
#	102946
#	113523
#
# Disc length: 1769 seconds
#
# Revision: 1
# Processed by: cddbd v1.5.2PL0 Copyright (c) Steve Scherf et al.
# Submitted via: audiograbber 1.82.02
#
DISCID=8506e70a
DTITLE=Jessi Colter - I'm Jessi Colter
DYEAR=1975
DGENRE=Country
TTITLE0=Is There Any Way (You'd Stay Forever)
TTITLE1=I Hear A Song
TTITLE2=Come On In
TTITLE3=You Ain't Never Been Loved (Like I'm Gonna Love You)
TTITLE4=Love's The Only Chain
TTITLE5=I'm Not Lisa
TTITLE6=For The First Time
TTITLE7=Who Walks Thru' Your Memory (Billy Jo)
TTITLE8=What Happened To Blue Eyes
TTITLE9=Storms Never Last
EXTD=Dream`Master Exclusive
EXTT0=
EXTT1=
EXTT2=
EXTT3=
EXTT4=
EXTT5=
EXTT6=
EXTT7=
EXTT8=
EXTT9=
PLAYORDER=
